<?xml version="1.0" encoding="UTF-8"?>
<svg id="Layer_2" data-name="Layer 2" xmlns="http://www.w3.org/2000/svg" viewBox="0 0 708.94 890.14">
  <g id="Layer_1-2" data-name="Layer 1">
    <path d="M321.11,366.26c.18,.28,.23,.65,.34,.97-.26,.26-.53,.52-.79,.78-2.33-2.37-5.02-4.48-6.92-7.16-4.67-6.54-6.86-13.98-6.4-22.06,.05-.93,1.25-1.81,1.92-2.71,.79,.9,2.29,1.83,2.26,2.7-.35,10.43,3.96,19.17,9.59,27.48Zm-44.51,57.68c1.88-1.44,3.23-3.57,4.8-5.41-.09-.43-.18-.84-.26-1.27-1.07-.35-2.69-1.31-3.1-.93-1.71,1.53-3.38,3.3-4.41,5.33-.76,1.49,1.57,3.35,2.97,2.28Zm-93.62-177.5c-.74-.5-2.05-.52-2.97-.28-.8,.2-1.43,1.08-2.13,1.66-.21-.12-.42-.24-.63-.36l5.69-13.97c-6.72-2.76-8.61,2.09-11.01,5.77-2.42,3.72-4.57,7.65-6.66,11.57-1.07,2-2,4.14-2.53,6.34-.28,1.18,.4,2.6,.66,3.91,1.11-.64,2.52-1.04,3.28-1.97,1.58-1.93,2.83-4.14,3.83-5.68,2.06,.36,4.35,1.41,5.01,.78,3.33-3.23,7.14-4.17,11.52-3.68,.08,.01,.19-.29,.15-.21-1.43-1.35-2.69-2.81-4.21-3.87Zm205.25,94.48c-.72,.72-1.87,1.33-2.1,2.19-.66,2.49-.72,5.16-1.45,7.63-1.57,5.28-3.4,10.47-5.37,16.43,7.03-6.9,10.79-14.54,10.78-23.82,0-.81-1.21-1.62-1.86-2.43Zm-145.94,62.82c3.75-4.92,3.44-10.89,4.37-16.82l2.91,2.52c.73-.94,1.31-1.7,1.87-2.42,3.9,2.12,5.86-2.15,8.99-2.48-1-.31-2.47,.01-2.84-.49-1.78-2.41-3.46-.63-5.2-.16-.14-.9-.28-1.8-.45-2.84-5.43,5.17-6.24-.36-8.32-3.45-1.81,8.83-.79,17.52-1.33,26.14Zm466.64,478.75c-.06,4.42-1.78,6.06-6.21,6.11-20.79,.22-677.91,1.7-693.57,1.51-.98-.01-1.97-.14-2.94-.3-5.8-.97-7.18-2.98-5.6-8.68,4.25-15.3,8.25-30.68,12.99-45.83,10.43-33.32,20.61-66.75,32.14-99.7,8.52-24.38,18.32-48.39,28.93-71.95,5.37-11.92,13.38-22.75,20.96-33.54,5.49-7.81,12.89-13.51,22.12-17.29,40.26-16.45,78.03-37.6,114.22-61.64,1.35-.89,1.77-1.9,1.86-3.5,.4-7.81,.96-15.61,1.52-23.41,.29-4.09,1.88-7.45,5.62-9.54,.75-.43,1.4-1.05,2.59-1.96-16.8-8.7-31.66-19.13-44.67-33.19-.07,1.48-.13,2.16-.13,2.83-.03,13.06-.23,53.56-.48,60.76-.12,3.53-2.83,5.61-6.27,5.44-8.53-.42-28.99-1.31-30.69-1.4-3.17-.17-4.21-1.03-4.34-4.22-.4-9.62-.82-19.24-1.01-28.86-.48-24.4-.84-48.79-1.27-73.18-.1-5.4,1.26-6.84,6.79-6.92,2.94-.04,5.89,0,9.16,0-1.42-5.05-2.97-9.34-3.82-13.77-1.99-10.3-3.34-20.74-5.54-30.99-1.38-6.46-3.83-12.69-5.81-19.01-.1-.3-.4-.53-.85-1.09-1.01,4.22-1.67,8.19-2.94,11.96-2.46,7.31-5.27,14.5-7.94,21.74-.16,.42-.29,.97-.61,1.18-.82,.53-1.77,1.26-2.62,1.21-.48-.03-1.25-1.46-1.25-2.25,.02-2.87,.51-5.75,.43-8.61-.07-2.57-.27-5.26-1.09-7.66-3.48-10.16-3.69-20.43-1.73-30.86,.08-.44,.14-.89,.17-1.33,.01-.27-.05-.53-.1-.91-4.27,1.66-8.37,3.83-12.73,4.83-8.46,1.95-17.06,3.32-25.63,4.68-1.07,.18-3.04-.84-3.39-1.77-.35-.95,.43-2.76,1.29-3.66,4.58-4.81,9.64-9.2,13.98-14.21,7.1-8.23,11.42-17.99,14.13-28.49,1.2-4.66-1.05-8.32-3.74-11.55-.89-1.06-3.3-.99-5.05-1.18-11.34-1.24-22.24-3.9-32.33-9.48-11.31-6.26-19.82-15.39-26.84-26.04-.45-.69-.46-2.31,.03-2.82,.6-.63,2.07-.96,2.95-.7,5.49,1.6,10.83,3.82,16.39,5.05,7.89,1.75,15.9,1.13,23.82-.32,2.82-.52,4.88-2.13,6.53-4.4,4.97-6.85,7.93-14.6,8.97-22.85,1.07-8.46,1.06-17.04,1.75-25.54,.36-4.37,.99-8.75,1.93-13.04,.95-4.36,3.06-8.25,6.52-11.24,1.97-1.71,2.81-3.88,1.95-6.3-.99-2.75-1.94-5.68-3.65-7.99-5.36-7.26-5.8-13.05,.04-19.97,3.55-4.22,7.98-7.72,12.21-11.32,1.3-1.11,1.74-1.94,1.35-3.58-.73-3.04-1.39-6.13-1.79-9.23-.77-5.98-.07-11.42,3.09-17.04,8.27-14.72,15.65-29.93,21.14-45.99,2.71-7.94,9.22-11.39,17.03-12.6,2.7-.42,5.52-.07,8.94-.07,.84-7.02,1.94-13.9,2.43-20.84,.59-8.51-1.08-16.82-3.26-25.02-.26-.96-.6-1.91-.69-2.89-.18-2.05,1.53-3.12,3.36-2.17,.47,.25,.93,.56,1.32,.93,11.48,10.88,22.09,22.47,29.47,36.64,1.56,3.01,2.76,6.21,4.08,9.23,3.09-3.38,5.94-6.86,9.17-9.95,11.94-11.38,26.72-17.34,42.32-21.49,15.83-4.2,31.97-6.76,48.32-7.71,6.16-.36,12.37-.08,18.55,.08,.85,.03,2.18,.92,2.36,1.65,.21,.78-.45,2.12-1.15,2.7-.99,.82-2.32,1.32-3.58,1.7-9.01,2.66-17.71,6.03-25.19,11.86-3.44,2.69-6.53,5.84-9.79,8.77,.11,.27,.21,.54,.31,.8,2.87,.3,5.73,.84,8.6,.87,12.23,.12,24.48,.13,36.33-3.6,12.38-3.89,22.11-10.87,26.23-23.78,1.19-3.73,1.43-7.76,2.34-11.59,.27-1.11,1.36-2.02,2.08-3.02,.98,.79,2.36,1.37,2.88,2.39,3.06,6.1,4.55,12.65,4.96,19.44,.46,7.62-.72,15.05-2.84,22.36-.24,.83-.41,1.68-.59,2.43,7.33-.26,14.5-.85,21.64-.68,7.7,.18,15.43,.75,23.05,1.82,3.23,.45,6.35,2.37,9.3,4.01,8.22,4.6,16.35,9.38,24.47,14.17,1.3,.77,2.44,1.86,3.49,2.97,2.14,2.26,1.65,4.72-1.38,5.19-4.49,.7-9.1,1.09-13.64,.93-4.71-.16-9.4-1.12-14.61-1.8,1.53,1.71,2.76,3.22,4.13,4.58,5.95,5.87,12.38,11.1,20.73,13.04,8.32,1.92,16.2-.11,23.82-3.47,9.87-4.36,18.53-10.62,27.01-17.17,.57-.44,1.06-1.08,1.71-1.3,1.07-.38,2.57-1.02,3.27-.57,.76,.48,1.27,2.16,1.09,3.18-3.69,21.64-9.69,42.27-25.85,58.4-.05,.05-.07,.15-.95,1.07,3.1,2.73,6.57,5.14,9.23,8.24,11.38,13.22,19.38,28.5,26.37,44.35,1.26,2.88,2.53,5.76,3.62,8.71,.53,1.43,1.31,1.75,2.76,1.89,11.3,1.1,20.42-3.72,28.74-10.57,3.25-2.69,6.14-5.82,9.34-8.57,1.06-.91,2.59-1.28,3.9-1.89,.46,1.35,1.39,2.74,1.32,4.07-1.41,24.15-10.22,44.97-28.86,60.82-7.35,6.24-15.71,11.3-23.85,17.07,6.58,8.73,14.05,17.23,26.14,19.69,5.97,1.21,11.6-.2,16.98-2.82,1.53-.74,3.01-1.67,4.61-2.2,.75-.25,1.96-.02,2.55,.48,.49,.4,.51,1.54,.46,2.34-.03,.58-.44,1.16-.77,1.69-6.74,10.76-14.65,20.29-26.8,25.35-.24,.1-.45,.28-.89,.55,.87,3.47,2.02,6.96,2.58,10.55,1.08,6.87,1.27,13.79-.54,20.61-1.09,4.09-2.79,4.57-5.67,1.58-5.4-5.6-11.21-10.68-17.91-14.67-.91-.54-1.83-1.05-3.02-1.73,.76,5.25,1.47,10.1,2.16,14.96,.1,.71,.26,1.49,.08,2.15-1.16,4.14,1.02,6.46,4.26,8.44,4.43,2.71,9,4.79,14.31,5.05,1.17,.06,2.91,.75,3.25,1.6,.35,.86-.41,2.63-1.24,3.4-7.67,7.1-16.65,11.16-27.24,11.17-1.5,0-2.99-.31-4.81-.51,.37,2.37,.68,4.55,1.06,6.7,1.94,10.93,1.67,21.84-.07,32.76-.08,.53-.12,1.16-.43,1.54-.67,.82-1.48,2.03-2.29,2.08-.69,.05-1.89-1.2-2.14-2.08-1.76-6.13-4.45-11.8-8.35-16.8-2.1-2.7-4.76-4.97-7.73-8.02-2.97,13.31-6.03,25.5-13.83,36.13,8.31,11.07,17.74,19.93,32.74,19.87,1.84-.01,4.37-1,5.31,1.36,.94,2.36-1.38,3.63-2.79,5.03-8.82,8.74-19.7,12.11-31.79,11.12-7.1-.59-14.11-2.36-21.15-3.62-.96-.17-1.9-.48-3.05-.78,0,1.64-.05,3.12,0,4.6,.14,3.14,.68,6.31,.44,9.42-.71,8.96,3.88,15.63,9.01,22.14,.5,.63,1.34,1.06,1.65,1.75,.48,1.11,1.22,2.72,.77,3.45-.5,.81-2.29,1.35-3.38,1.17-5.13-.86-10.2-2.02-15.44-3.1-.1,.65-.23,1.16-.23,1.66-.07,13.86-.18,27.73-.1,41.59,.01,1.52,.72,3.42,1.77,4.5,12,12.44,24.08,24.8,36.27,37.05,1.32,1.32,3.39,1.98,5.21,2.68,29.79,11.58,58.77,24.81,86.17,41.35,22.73,13.73,43.93,29.43,62.95,48.04,4.95,4.84,8.14,10.71,11.38,16.61,13.66,24.86,23.46,51.26,31.39,78.42,8.1,27.78,14.03,56.04,18.47,84.62,1.7,10.92,3.19,21.86,4.7,32.8,.25,1.87,.22,3.78,.2,5.67Zm-207.26-296.76l10.77,9.86c1.08-1.23,2.49-2.82,4.11-4.67l-14.41-5.98c-.16,.26-.32,.53-.47,.79Zm-21.86,52.8c4.75-.65,9.08-1.16,13.37-1.89,.83-.14,1.92-.97,2.23-1.74,3.82-9.57,7.55-19.18,11.23-28.81,.23-.59,.13-1.69-.28-2.08-3.41-3.29-6.94-6.48-10.76-9.99l-15.79,44.51Zm-41.92-91.18c-.69-.66-1.86-1.14-2.81-1.16-6.21-.1-12.43-.1-18.64,0-.82,.01-1.98,.51-2.41,1.17-6.1,9.22-12.25,18.4-18.08,27.79-9.74,15.65-19.03,31.57-26.04,48.68-.84,2.03-1.07,4.52-.87,6.73,.61,6.41,.77,6.29,6.99,7.15,15.56,2.15,77.49,11.14,92.92,13.41,.22-.33,.42-.53,.5-.76,6.22-17.79,12.45-35.57,18.57-53.39,.24-.72-.28-2.08-.9-2.67-16.36-15.7-32.77-31.35-49.23-46.95Zm-59.46,140.62l-9.15,57h41.82l4.25-57h-36.92Zm67.7-183.96c0-1.82-1.12-2.04-2.34-2.32-9.52-2.19-19.01-2.37-28.52,.17-1.82,.48-2.45,1.17-2.4,3.04,.21,7.2,.39,26.04,.39,28.38,.74,.07,1.17,.17,1.59,.15l31.24-1.07c0-9.68-.05-19.02,.04-28.35Zm-34.85-30.45c-.16,6.28-.08,12.56-.08,18.84l1.08,.18,11.75-30.19c-4.05,2.42-7.67,5.06-11.11,7.92-.87,.72-1.62,2.13-1.64,3.25Zm.08-7.84c2.31-1.71,4.17-3.06,6-4.45,.63-.48,1.17-1.07,1.92-1.77-1.19-1.51-2.01-3-3.24-3.96-.84-.66-2.25-.74-3.41-.76-.41-.01-1.19,.88-1.21,1.38-.12,3.01-.06,6.02-.06,9.56Zm20.74-15.05c.01-5.08-1.25-6.36-6.13-6.24-3.72,.09-6.34,2.69-6.27,6.23,.09,3.98,2.76,6.64,6.61,6.59,3.67-.05,5.78-2.45,5.79-6.58Zm-1.41,43.76c0,.38,.73,1.03,1.18,1.08,3.24,.38,6.49,.64,10.14,.97l-11.38-25.92c0,8.51-.01,16.19,.06,23.87Zm-6.05-21.06l-9.29,23.72,10.26-1.58v-21.98c-.33-.05-.65-.11-.97-.16Zm21.37,5.31c-.03-1.04-.67-2.24-1.37-3.07-3.48-4.13-7.06-8.17-10.63-12.22-.41-.47-.96-.82-1.45-1.22-.16,.11-.32,.23-.47,.35l12.97,29.97,1.02-.09c0-4.57,.08-9.15-.07-13.72Zm-.43-22.53c-2.94-.14-5.7-.36-8.46-.35-1.85,.01-2.43,1.4-1.24,2.88,1.45,1.82,3,3.55,4.53,5.3,1.59,1.83,3.21,3.63,5.17,5.83v-13.66Zm-.07-12.15c-3.16,.18-5.97,.33-8.93,.49,.22,2.08,.32,3.94,.67,5.75,.1,.52,.89,1.27,1.41,1.3,2.26,.14,4.54,.06,6.85,.06v-7.6Zm-.08-6.25c-.03-.68-1.11-1.45-1.89-1.92-.46-.28-1.22-.08-1.85-.06-7.36,.18-14.71,.44-22.07,.5-2.64,.02-3.91,1.31-4.73,3.97,.82,.11,1.32,.24,1.83,.23,6.28-.17,12.55-.37,18.83-.55,2.69-.07,5.4,.02,8.07-.26,.71-.08,1.83-1.26,1.81-1.91Zm-32.7,7.18c-2.12,.13-1.53,1.83-1.6,3.07-.08,1.25,.07,2.25,1.82,2.3,3.63,.11,3.31-3.08,5.07-5.39-2.24,0-3.77-.08-5.29,.02Zm93.77-111.06c-6.35-7.4-10.86-15.82-14.1-24.96-.32-.89-.8-2.09-1.52-2.38-3.12-1.28-6.36-2.28-10.11-3.57,.78,1.78,1.28,2.83,1.72,3.91,6.25,15.48,14.38,29.75,26.23,41.72,5.76,5.82,14.39,7.39,21.99,3.55-.94-.51-1.79-.99-2.65-1.44-8.18-4.34-15.5-9.77-21.56-16.83Zm-3.08-95.45c-2.27-3.18-4.03-6.86-5.36-10.54-3.02-8.41-6.63-16.42-11.89-23.74-14.2-19.74-31.42-36.27-51.59-49.79-.25-.17-.59-.21-.96-.33,.24,4.24,.37,4.33,3.42,6.61,5.7,4.25,11.65,8.22,16.93,12.94,8.85,7.92,17.31,16.28,25.79,24.6,1.43,1.4,2.66,3.44,3.07,5.38,3.07,14.48,7.63,28.43,14.05,41.77,5.24,10.9,11.76,21.01,19.13,30.6,.81,1.05,1.48,2.91,1.1,4-.61,1.76-2.46,1.1-4,.81-9.06-1.7-16.68-6.5-24.32-11.22-3.94-2.44-7.81-4.99-11.71-7.49-.18,.17-.35,.34-.52,.51,.17,.58,.3,1.17,.51,1.74,4.88,13.65,12.43,25.87,20.24,37.97,.77,1.2,1.46,3.27,.93,4.28-.77,1.49-.6,2.45,.07,3.68,4,7.3,8.81,14.01,14.72,19.89,.93,.93,1.92,1.78,3.39,3.14-.31-7.4-1.32-13.84-5.69-19.29-1.2-1.48-2.37-3.28-1.06-4.81,.78-.91,2.96-1.2,4.33-.92,8.16,1.66,15.88,4.52,22.8,9.22,2.04,1.38,3.79,3.17,6.13,5.16-.18-7.95-2.34-14.77-4.99-21.63-1.42,.35-2.64,.61-3.84,.95-8.46,2.35-17.13,3.1-25.86,3.15-1.08,0-2.8-1.12-3.11-2.08-.6-1.83,1.16-2.31,2.63-2.57,3.01-.53,6.03-.96,9.03-1.51,13.02-2.37,25.31-6.72,36.55-13.81,.83-.52,1.53-1.23,2.29-1.85-11.14-.33-19.57-5.5-27.47-12.38-10.5-9.16-16.85-21.37-24.74-32.44Zm-63.24,.81c-.06,1.02-1.01,2.34-1.91,2.81-.49,.25-1.86-.9-2.64-1.63-.56-.52-.76-1.42-1.19-2.1-2.38-3.68-4.63-7.47-7.25-10.99-1.53-2.07-3.65-3.71-5.51-5.54-.17,.13-.35,.25-.52,.37l3.06,38.53c.27,.05,.54,.1,.82,.15,.79-1.25,1.44-2.63,2.42-3.71,.87-.96,2.11-1.58,3.19-2.35,.52,1.14,1.43,2.25,1.51,3.42,.85,12.75,2.73,43.08,2.93,45.5,1.01-1.09,1.57-2.19,2.07-3.32,6.75-15.18,9.17-31.28,10.08-47.7,.17-3.05,.14-6.15,.7-9.13,.23-1.24,1.64-2.46,2.83-3.16,.34-.2,1.97,1.32,2.66,2.3,.81,1.16,1.25,2.58,1.85,3.89,.89,1.93,1.78,3.87,2.96,6.45,2.47-17.65-22.21-74.19-34.91-81.11-1.25,2.26-1.25,3.34,.4,5.88,10.03,15.41,15.64,32.26,16.46,50.64,.16,3.6,.2,7.21-.01,10.8Zm86.01-38.11c-10.32-5.32-19.52-12.24-27.33-20.84-4.53-4.99-8.76-10.26-12.96-15.53-5.81-7.29-13.61-11.92-21.51-16.45-.34-.2-.79-.24-1.19-.35-.09,.15-.19,.29-.29,.44,1.21,1.13,2.45,2.24,3.64,3.4,7.34,7.21,14.34,14.68,18.9,24.07,7.24,14.94,18.56,25.42,34.2,31.08,9.7,3.52,19.82,4.08,30.03,3.97,.99-.01,2.37,.55,2.87,1.31,.36,.55-.23,2.01-.77,2.81-6.91,10.17-16.54,16.57-28.15,20.17-3.66,1.14-7.35,2.15-11.33,3.31,1.44,1.7,2.63,3.14,3.86,4.56,1.28,1.46,2.59,2.9,3.79,4.25,24.77-13.09,41.87-32.06,48.72-60.06-1.09,.92-1.77,1.48-2.43,2.05-6.34,5.52-12.89,10.8-21.32,12.67-6.25,1.4-12.73,2.23-18.73-.86ZM318.9,62.94c1.54-.66,2.51-1.09,3.48-1.49,8.81-3.67,17.03-8.7,27-9.45,7.93-.59,15.75-2.54,23.65-3.71,1.67-.25,2.51-.88,3.12-2.37,2.57-6.25,3.72-12.74,3.52-19.48-.02-.64-.24-1.28-.47-2.5-2.04,2.78-3.58,5.18-5.42,7.33-7.85,9.19-18.28,13.78-29.83,15.89-5.89,1.07-11.96,1.15-17.93,1.77-1.04,.11-2.7,.44-2.94,1.09-1.52,4.08-2.72,8.28-4.18,12.92Zm-43.38,46.21c-.97,.97-1.83,2.06-2.74,3.09,.15,.16,.3,.33,.44,.49,1.34-.99,2.69-1.96,4.01-2.96,14.75-11.24,29.75-22.07,45.92-31.26,7.22-4.1,14.61-5.37,22.73-4.92,19.48,1.08,38.98,1.76,58.47,2.8,8.33,.44,16.64,1.33,24.96,2.12,2.87,.27,4,2.66,2.35,5.07-.82,1.21-2.08,2.32-3.39,2.96-2.66,1.29-5.41,2.49-8.24,3.28-5.59,1.54-11.25,2.79-16.88,4.15-.06,.29-.12,.57-.18,.86,4.05,1.38,8,3.25,12.15,4.03,8.85,1.66,17.26,4.21,24.74,9.32,3.34,2.28,6.65,4.61,9.86,7.07,.64,.49,1.29,1.92,1.02,2.43-.39,.75-1.57,1.19-2.5,1.52-.64,.23-1.43,.06-2.15,.05-11.88-.07-23.77-.09-35.65-.23-15.15-.16-29.87,2.16-44.08,7.49-1.08,.41-2.1,1.02-3.14,1.54,.06,.34,.13,.69,.19,1.03,6.25,0,12.5,.03,18.75,0,13.31-.08,26.65,.23,39.94-.45,9.9-.51,18.77,.8,26.09,8.04,.52,.51,1.59,.54,2.42,.62,1.73,.16,3.66-.25,5.2,.35,12.57,4.89,23.9,11.86,33.09,21.76,9.26,9.98,18.58,19.84,29.43,28.13,.71,.55,1.5,.98,2.25,1.46,.15-1.09-.02-1.78-.33-2.39-4.6-8.95-8.84-18.12-13.93-26.78-7.88-13.39-17.53-25.3-31.59-32.86-.7-.38-1.55-.82-1.9-1.46-.54-1.01-.7-2.22-1.03-3.34,1.12-.28,2.27-.84,3.36-.76,1.11,.09,2.16,.83,3.25,1.26,7.85,3.15,8.39,3.1,13.4-3.83,8.05-11.15,12.43-24.03,16.93-36.84,.06-.16-.18-.43-.38-.87-.81,.58-1.5,1.11-2.23,1.6-4.64,3.08-9.05,6.6-13.96,9.15-14.98,7.78-29.94,7.97-44.02-2.05-5.46-3.89-10.22-8.77-15.11-13.39-1.67-1.57-2.99-3.62-4.09-5.66-1.48-2.74-.33-4.38,2.75-4.15,1.78,.13,3.54,.73,5.32,.77,4.66,.11,9.34,.04,14.67,.04-3.84-2.39-6.98-4.72-10.43-6.41-7.24-3.54-14.36-8.19-22.05-9.7-8.83-1.72-18.28-1.2-27.36-.44-12.86,1.07-25.61,3.36-38.43,4.95-9.68,1.2-18.49,4.3-26.08,10.6-2.42,2-5.06,3.75-7.58,5.63-15.45,11.53-30.55,23.47-44.24,37.1Zm135.05,137.86c-2.35,1.26-1.57,3.3-.76,4.92,2.26,4.46,4.77,8.8,7.23,13.16,.57,1.01,1.32,1.92,1.99,2.87,.26-.14,.52-.29,.78-.44l-6.85-16.83c2.48-.66,1.8-1.81,.71-3.65-3.55-6-8.84-10.77-10.89-17.9-1.69-5.89-6.93-9.43-12.24-12.33-.59-.32-1.37-.28-2.06-.41-.16,.28-.32,.57-.47,.86,.99,.87,1.98,1.77,2.99,2.62,3.93,3.28,8.88,5.7,9.51,11.69,.05,.47,.58,.88,.88,1.34l9.18,14.1Zm-88.41-73.38c-.73,3.02,.48,3.61,2.52,3.93,4.15,.65,8.24,1.72,12.4,2.4,4.44,.73,8.93,1.2,13.4,1.79,.05-.26,.11-.52,.16-.79-6.54-5.99-14.84-4.84-23.25-5.28,2.19-2.01,1.75-3.26-.53-3.95-9.83-2.98-19.92-3.64-30.1-3.18-1.79,.08-3.93,.48-4.66,2.98l30.06,2.1Zm65.3-62.37c3.14-.9,1.8-5.79-1.34-4.89-15.9,4.55-33.36,.55-49.63,2.81-7.11,.99-14.47,3.05-19.79,8.14-6.07,5.81-7.58,14.27-7.22,22.35,.15,3.25,5.22,3.27,5.08,0-.35-7.66,1.03-15.58,7.63-20.34,5.88-4.25,13.73-5.26,20.77-5.74,14.61-.98,30.24,1.75,44.5-2.33Zm-32.62,51.96c10.85-5.84,23.19-8.99,35.51-9.14,3.26-.04,3.27-5.12,0-5.08-13.22,.17-26.43,3.57-38.07,9.84-2.88,1.55-.32,5.93,2.56,4.38Zm-7.34,43.42c4.31,3.43,6.04,7.74,7.53,12.74,1.87,6.29,6.52,8.45,12.62,6.62,8.23-2.47,14.39-8.15,20.85-13.38-7.02-8.35-25.08-23.26-34.91-28.79-1.94,2.66-3.86,5.15-5.59,7.76-.93,1.41-1.67,2.98-2.25,4.57-1.4,3.8-1.44,7.95,1.75,10.48Zm-49.37-159.36c-.68-.07-1.54,.42-2.13,.89-7.72,6.03-15.45,12.06-23.1,18.19-12.86,10.3-25.34,21.01-36.67,33.02-2.79,2.95-4.52,6.37-4.89,10.26-.47,4.99-.46,10.03-.51,15.05-.02,1.63,.4,3.26,.62,4.89,.27,.01,.54,.03,.82,.04,.5-2.46,.97-4.94,1.51-7.4,4.14-19.07,13.94-34.6,30.65-44.73,14.26-8.64,29.35-15.9,44.07-23.79,2.39-1.28,4.76-2.6,7.14-3.91-5.94-1.23-11.72-1.93-17.51-2.51Zm-40.54,65.1c.29-3.25-4.78-3.24-5.07,0-1.33,14.84-2.63,31.31,3.9,45.19,1.39,2.95,5.77,.38,4.38-2.56-6.08-12.91-4.44-28.85-3.21-42.63Zm-33.28-52.13c.25,.16,.51,.32,.76,.49,.61-.46,1.24-.9,1.84-1.39,6.75-5.5,14.22-9.79,22.41-12.68,4.78-1.69,9.39-3.52,13.45-6.65,1.03-.79,2.69-.75,4.05-1.1,.32,1.57,.97,3.17,.84,4.71-.12,1.45-.84,2.97-1.68,4.21-3.17,4.68-6.18,9.53-9.85,13.79-3.18,3.69-3.06,8.07-4.68,12.87,1.07-.76,1.44-1,1.79-1.27,9.53-7.39,19.15-14.66,28.55-22.19,6.79-5.44,14.08-10.22,19.95-16.86,3.63-4.11,8.4-7.22,12.67-10.76,.67-.56,1.41-1.05,2.11-1.58-1.02-.45-1.74-.46-2.43-.35-6.11,1.01-12.21,2.02-18.31,3.06-15.24,2.6-30.24,6.07-44.67,11.77-9.98,3.94-18.38,9.81-24.32,18.86-1.02,1.56-1.66,3.37-2.48,5.07Zm-6.72,30.69c-17.21,6.57-22.08,22.94-18.39,39.91,.69,3.19,5.59,1.84,4.89-1.35-3.05-14.01,.36-28.14,14.85-33.67,3.02-1.15,1.71-6.06-1.35-4.89Zm-30.24-19.38c1.68,4.72,3.51,9.39,5.46,14.51,9.05-6.75,16.5-14.62,22.96-23.44,.59-.8,.98-2.04,.88-3.02-.69-6.96-2.32-13.76-6.72-19.31-3.84-4.85-8.36-9.16-12.61-13.69-.38-.4-.97-.61-1.38-.86,0,3.35,.22,6.57-.04,9.76-.93,11.54-4.1,22.55-8.35,33.28-.33,.83-.49,1.96-.2,2.77Zm28.27,113.21c.87-7.93-19.38-36.37-28.18-39.58-4.04,10.18,13.42,36.19,28.18,39.58Zm-74.49-61.94c2.56,12.96,5.81,25.74,11.52,37.75,2.76,5.8,5.88,11.37,10.82,15.66,.79,.68,1.76,1.15,2.65,1.72,.03-1.28-.38-2.06-.76-2.85-3.2-6.63-6.61-13.17-9.54-19.92-3.62-8.29-6.09-16.9-5.32-26.14,.26-3.12,1.08-5.91,2.95-8.5,9.14-12.62,17.7-25.62,23.78-40.04,2.64-6.25,4.83-12.68,7.44-19.58-2.17,0-3.51-.02-4.85,0-8.07,.14-13.33,3.83-16.25,11.38-1.22,3.18-2.23,6.47-3.69,9.54-5.77,12.18-11.71,24.28-17.52,36.44-.67,1.41-1.51,3.15-1.23,4.54Zm-8.99,66.11c.99,.11,1.77,.24,2.56,.28,4.28,.24,4.23,.11,4.18-4.18-.06-5.66,.21-11.33,.3-16.99,.05-3.67,1.15-6.55,5.52-7.15l-4.93-11.05c-4.59,3.79-8.6,7.67-11.15,12.75-1.88,3.74-3.32,7.66-.83,11.76,2.69,4.43,4.84,9.03,4.35,14.58Zm-4.16,134.79c-.44-.15-.87-.3-1.3-.45-4.76,13.61-12.91,24.89-23.36,34.58l.42,.57c3.35-.57,6.71-1.06,10.03-1.76,.88-.19,1.83-.85,2.39-1.57,5.21-6.64,9.17-13.96,10.91-22.27,.63-2.97,.62-6.06,.91-9.1Zm14.58-123.24c2.42-2.97,5.11-5.72,8.26-9.22-1.34,.18-1.9,.14-2.35,.34-4.74,2.11-9.75,2.3-14.81,2.01-4.28-.25-7.27,1.56-8.91,5.51-3.14,7.55-3.62,15.51-3.65,23.54-.01,3.84,.21,7.73-.24,11.53-1,8.38-2.46,16.71-6.41,24.34-3.89,7.49-8.65,14.26-17.18,16.92-5.5,1.71-11.21,2.44-17.02,1.59-2.05-.3-4.12-.51-6.28-.77,.09,.55,.06,.8,.16,.88,6.47,4.99,13.06,9.89,21.23,11.87,2.84,.69,5.62,.71,8.33-.86,10.41-6.02,15.37-15.45,17.19-26.94,1.2-7.61,2.17-15.28,3.89-22.78,3.19-13.88,8.7-26.8,17.79-37.96Zm18.22,241.02c.47,.31,.94,.88,1.42,.89,3.76,.08,7.52,.04,11.28,.04l.64-.7c-.67-.57-1.33-1.62-2.01-1.64-3.32-.11-6.65,.01-9.97,.19-.48,.02-.91,.79-1.36,1.22Zm6.15,13.92c.71,0,1.45,.1,2.14-.04,.54-.11,1.31-.38,1.49-.79,1.03-2.4,1.92-4.86,2.93-7.5h-12.59c0,.95-.01,1.65,0,2.35q.1,5.99,6.03,5.98Zm4.33,5.36c-.25-.54-1.23-1.04-1.88-1.04-2.57-.01-5.15,.18-7.81,.31v11.79c.18,.13,.36,.27,.55,.4,2.95-3.08,5.94-6.13,8.81-9.29,.43-.47,.59-1.6,.33-2.17Zm-9.2,40.86c.02,.67,.2,1.33,.37,2.39,.45-.63,.71-.88,.83-1.19,3.9-10.12,7.76-20.25,11.7-30.35,.85-2.19,.41-3.79-1.85-5.26-3.35,3.3-6.81,6.54-10.05,9.98-.86,.92-1.52,2.44-1.52,3.69,.04,6.91,.31,13.82,.52,20.74Zm29.32-7.26c.28-.08,.56-.15,.84-.22,.43-7.08,1.84-14.41-6.16-19.94l5.32,20.16Zm-7-9.08c-.26,.04-.53,.08-.79,.12-.14,.28-.41,.57-.41,.85-.04,6.2-.05,12.4-.03,18.6,0,.48,.21,1.25,.52,1.38,2.16,.85,4.38,1.57,7.02,2.49l-6.31-23.44Zm2-20.91l-8.93-14.68c-2.25,4.37-2.07,11.7,.09,15.24,1.83,2.98,4.24,3.41,6.87,1.2,.61-.52,1.2-1.07,1.97-1.76Zm-20.61,44.41c3.83-.9,7.01-1.88,10.26-2.32,2.06-.29,2.71-.93,2.68-3-.1-8.01-.03-16.02-.05-24.02,0-.65-.15-1.29-.23-1.94-.2-.02-.39-.05-.58-.07l-12.08,31.35Zm26.69,29.96c-.15-.6,.9-2.99-2-2.43-8.21,1.58-16.43,1.07-24.65,.38-3.11-.26-3.33,.05-2.81,3.11,.36,2.12,1.9,1.59,3.09,1.63,7.8,.28,15.61,.31,23.39,.79,2.46,.15,3.43-.26,2.98-3.48Zm-2.7-24.82c-1.25-.84-2.59-1.62-4-2.15-8-3.02-15.13-.26-21.99,3.63-.76,.43-1.45,1.7-1.48,2.6-.15,4.48-.06,8.97-.06,13.63,10.13,1.76,19.6,1.71,29.05,.02,.55-.1,1.25-1.37,1.28-2.11,.11-3.33-.2-6.67,.04-9.98,.19-2.6-.87-4.32-2.84-5.64Zm63-4.17c1.53,.73,3.31,1.35,4.38,2.55,6.92,7.8,15.76,9.39,25.54,8.34,10.87-1.17,21-4.8,30.63-9.71,24.38-12.45,46.78-27.93,67.57-45.7,2.43-2.07,4.05-5.15,5.84-7.89,1.6-2.47,2.91-5.12,4.35-7.68,.16,.07,.33,.15,.49,.22l-1.08,4.45c.22,.1,.44,.19,.66,.29l8.13-13.97c.15,.08,.29,.17,.44,.25-.93,2.66-1.87,5.33-2.81,7.99,.22,.11,.45,.21,.67,.32,1.48-1.65,3.11-3.19,4.43-4.97,3.67-4.97,7.82-9.72,10.61-15.16,2.15-4.19,4.37-6.7,9.17-7.48,6.05-.97,5.91-1.34,6.62-7.43,.23-1.98,.28-3.47-1.52-4.93-1.96-1.59-1.77-3.56-.05-5.41,1.87-2.01,4.74-2.62,6.57-1.39,1.89,1.27,1.9,3.76,.79,6.6-1.09,2.79-1.54,5.83-2.27,8.75,.27,.13,.54,.25,.81,.37,2.56-1.63,5.25-3.09,7.68-4.91,7.85-5.91,15.8-11.87,20.26-20.95,2.99-6.1,5.64-12.44,7.75-18.9,3.72-11.37,4.31-22.91-.13-34.33-.52-1.35-1.26-2.62-2.15-4.44-.67,1.31-1.14,1.9-1.3,2.56-1.85,7.93-5.8,14.91-10.18,21.6-2.26,3.45-1.29,6.48-.45,10.29,1.22-1.1,2.02-2.11,3.05-2.65,.72-.36,1.95-.36,2.6,.05,.46,.28,.47,1.54,.38,2.33-.06,.57-.54,1.13-.94,1.61-3.08,3.7-4.19,8.03-4.44,12.74-.07,1.19-.73,2.58-1.57,3.45-4.38,4.55-9.88,6.65-16.1,5.92-5.62-.65-9.36,1.58-12.01,6.26-1.24,2.19-2.31,4.49-3.73,6.55-.58,.85-1.88,1.21-2.85,1.79-.32-1.09-1.2-2.38-.89-3.23,2.33-6.39,5.96-11.91,11.88-15.55,1.03-.64,2.55-.68,3.85-.67,2.5,.01,5.01,.44,7.51,.37,3.7-.12,6.93-1.83,9.06-4.66,.95-1.28,.48-3.73,.38-5.64-.17-3.36-.55-6.71-.85-10.07-.26-.14-.52-.28-.79-.43-.91,1.08-1.79,2.2-2.76,3.23-15.24,16.25-33.47,28.26-53.55,37.62-2.84,1.32-5.85,2.3-8.85,3.21-.76,.23-1.77-.38-2.67-.6,.3-.8,.4-1.77,.93-2.35,1.57-1.73,3.2-3.44,5.01-4.9,6.25-5.05,11.38-11.06,15.12-18.12,2.23-4.22,3.82-8.78,5.99-13.86-1.21,.43-1.54,.5-1.82,.66-8.07,4.64-16.85,7.04-26.02,8.2-2.04,.25-4.13,.42-5.08-1.85-.92-2.21,.96-3.21,2.38-4.28,.22-.16,.44-.32,.67-.46,8.22-5.06,14.38-12.22,19.8-20,8.26-11.86,13.75-24.69,13.86-39.57,.05-8.34,1.28-16.66,1.86-25.01,.47-6.73,.81-13.47,1.06-20.21,.03-.77-.79-2.12-1.43-2.27-6.89-1.58-13.68-1.71-20.12,1.93-2.79,1.58-4.77,.32-4.81-2.87-.03-2.16,.11-4.31,.01-6.46-.17-3.44-1.54-5.01-4.78-5.92-.95-.26-2.02-.47-2.74-1.06-2.98-2.41-5.87-1.45-8.44,.38-6.29,4.48-7.68,11.23-8.36,18.37,3.4,.3,6.44,.48,9.46,.83,8.89,1.05,17.37,3.64,25.55,7.2,1.23,.53,3.12,1.33,1.99,3.06-.5,.76-2.49,1.03-3.65,.78-5.25-1.11-10.39-3.01-15.68-3.63-6.56-.77-13.52-1.86-19.78-.45-8.57,1.92-16.65,6.06-24.94,9.25-.41,.16-.83,.31-1.25,.46,4.43,1.02,8.36,1.21,12.25,1.73,9.98,1.32,19.8,3.35,29.28,6.83,1.6,.59,3.26,1.32,2.53,3.39-.67,1.92-2.34,1.2-3.69,.76-12.52-4.03-25.24-7.04-38.45-7.41-5.65-.16-11.47-.32-16.59,2.53-7.14,3.97-14.01,8.43-21.1,12.5-3.41,1.96-5.6,4.65-6.78,8.34-.66,2.05-1.44,4.08-2.45,5.97-.35,.65-1.58,1.17-2.36,1.11-.45-.03-1.01-1.27-1.18-2.04-.21-.92-.05-1.92-.05-3.36-8.22,2.32-15.44,1.27-20.75-5.97,1.59,.08,3.09,.47,4.6,.87,6.49,1.75,12.18,.71,16.96-4.44,2.38-2.55,4.98-5.02,7.87-6.95,14.3-9.57,29.35-17.78,45.18-24.54,.94-.4,2.16-1.34,2.3-2.18,.47-2.82,.78-5.72,.66-8.57-.2-4.95-4.91-8.03-9.54-6.39-1.76,.63-3.42,1.58-5.09,2.46-1.94,1.02-3.83,1.66-5.51-.39-1.64-1.99-.54-3.72,.68-5.34,1.84-2.45,4.06-4.66,5.57-7.29,2.15-3.78,3.99-7.77,5.59-11.82,.93-2.35-.68-4.13-3.3-4.2-.79-.02-1.61,.11-2.39,.3-5.67,1.42-10.75,4.09-15.33,7.64-5.83,4.52-10.8,9.82-13.44,16.89-1.52,4.07-.83,5.87,2.66,7.48,3.73,1.73,4.34,3.08,2.3,6.67-5,8.78-12.62,14.62-21.77,18.57-2.02,.87-3.8-.33-4.07-2.53-.11-.97-.08-1.99,.1-2.96,.69-3.73-.63-7.01-2.15-10.73-2.29,1.91-4.53,3.45-6.34,5.39-2.94,3.15-5.61,6.55-8.36,9.87-1.09,1.31-1.97,2.96-4.13,1.81-2.2-1.17-2.04-2.91-1.25-4.84,.38-.91,.73-1.84,1.12-2.75,2.71-6.24,4.46-12.68,4.27-19.57-.08-3.04-1.23-4.16-4.23-3.54-1.58,.33-3.07,1.15-4.65,1.34-1.01,.12-2.58-.19-3.04-.88-.56-.83-.37-2.3-.17-3.43,.12-.73,.84-1.35,1.3-2.02,2.78-4.09,5.77-8.05,8.29-12.3,3.03-5.1,5.57-10.48,8.52-15.62,.55-.94,2.08-1.84,3.12-1.8,.87,.03,2,1.3,2.48,2.29,.81,1.68,1.15,3.58,1.79,5.35,.89,2.48,2.49,2.75,4.07,.62,.9-1.22,1.72-2.57,2.22-3.99,2.72-7.66,4.62-15.5,4.59-23.69-.01-3.32-1.32-4.14-4.47-2.82-2.07,.88-4.12,1.81-6.12,2.81-1.87,.94-3.19,.23-4.03-1.37-.57-1.09-1.05-2.36-1.08-3.56-.25-8.96,1.68-17.22,7.64-24.29,.87-1.05,.85-3.02,.79-4.54-.01-.33-1.97-.84-3.03-.84-11.33-.08-21.48,3.65-30.88,9.73-1.82,1.17-3.57,2.45-5.49,3.42-2.41,1.24-3.39,.57-3.7-2.13-.1-.86-.29-1.7-.52-2.99-1.17,.73-2.02,1.18-2.78,1.74-2.69,1.97-5.43,3.87-7.99,6-2.86,2.37-6.02,2.6-9.4,1.77-2.08-.52-4.12-1.26-6.2-1.76-2.24-.54-4.51-.93-6.77-1.38-.46,1.41-.73,2.46-1.13,3.45-1.19,2.94-2.8,3.62-5.71,2.37-1.15-.5-2.27-1.07-3.37-1.68-3.27-1.81-6.56-1.99-9.65,.23-4.28,3.09-8.8,5.98-12.58,9.62-9.49,9.12-15.49,20.63-20.98,32.42-7.89,16.95-12.3,34.67-12.04,53.44,.05,3.8,.44,7.59,.68,11.67,3.17-1.8,5.85-3.46,8.64-4.89,9.38-4.8,19.01-7.23,29.56-3.84,14.88,4.78,28.95,11.27,42.31,19.33,2.19,1.32,4.18,2.97,6.26,4.46-.08,.27-.16,.54-.24,.82-1.47,.06-2.94,.21-4.4,.18-6.5-.15-12.55-1.97-18.32-4.91-1.08-.54-2.41-1.01-3.58-.92-9.4,.72-29.97,2.55-30.87,2.62-.08-.31-.15-.61-.22-.92,5.6-6.86,14.25-6.05,22.62-7.91-1.29-.76-1.83-1.21-2.45-1.41-6.64-2.18-13.23-4.53-19.97-6.36-3.12-.85-6.9-1.72-9.71-.71-6.03,2.15-11.65,5.47-17.37,8.45-.6,.32-1.08,1.63-.98,2.39,1.87,13.42,5.71,26.28,11.12,38.69,4.38,10.04,8.97,20,13,30.18,2.19,5.56,4.18,11.42,4.91,17.31,1.15,9.27,2.01,18.55,4.47,27.6l.84,3.14c.28-.04,.57-.07,.85-.11v-4.28c.31-.02,.62-.05,.93-.08l1.9,11.78c.23-.05,.45-.11,.67-.16l.76-8.37h1.07v13.72c1.45-.1,2.2-.15,2.89-.2,.17,.31,.32,.46,.33,.62,.06,.81,.16,1.62,.12,2.43-.32,7.66,1.72,14.55,6.59,20.54,.85,1.05,1.53,2.23,2.34,3.31,15.79,21.14,35.99,36.81,59.65,48.21Zm124.32-8.94l-4.74,6.67c.89,0,1.26,.09,1.57,0,8.93-3,17.85-6,26.75-9.08,.51-.17,1.15-.94,1.16-1.43,.08-6.19,.79-12.49-.14-18.54-1.23-7.99-4.13-9.52-11.6-6.1-5.53,2.54-10.86,5.62-15.98,8.92-10.95,7.07-21.63,14.55-32.57,21.64-7.16,4.64-14.35,9.33-21.95,13.18-9.97,5.06-20.47,9-31.57,11.87,.47,.1,.95,.34,1.39,.28,6.04-.86,12.18-1.33,18.09-2.73,16.31-3.86,32.53-8.06,48.77-12.23,5.6-1.44,10.97-3.43,15.17-7.73,1.7-1.74,3.53-3.36,5.3-5.03,.11,.11,.23,.21,.35,.32Zm-111.95,24.87c-5.4-2-10.13-5.83-15.39-9-.39,.41-1.12,1.19-2.09,2.23,2.5,4.18,6.45,5.95,10.62,7.49,7.07,2.61,14.47,2.17,21.8,2.49,.81,.04,1.63-.17,1.78-.18-5.25-.88-11.32-1.03-16.72-3.03Zm-23.1,18.1c6.13,3.41,11.58,7.71,15.16,13.85,1.11,1.91,1.76,4.37,1.75,6.58-.01,9.63-.24,19.25-.64,28.87-.11,2.79,.71,4.25,3.46,4.5,6.32,.58,12.64,1.45,18.98,1.57,5.27,.09,6.62-1.3,7.04-5.58,.65-6.52,1.05-13.07,1.73-19.59,.55-5.26,1.19-10.53,2.1-15.74,.61-3.5,3.02-5.66,6.51-6.39,2.37-.49,4.79-.73,7.18-1.12,15.65-2.57,31.19-5.53,46.41-10.24,17.18-5.32,34.2-10.89,49.88-19.88,4.25-2.43,7.92-5.3,6.96-11.07-.16-.96-.01-1.98-.02-2.97-.03-2.71-.88-3.44-3.63-3-1.06,.17-2.1,.51-3.11,.86-5.09,1.75-10.14,3.63-15.25,5.29-36.3,11.83-72.86,22.79-109.85,32.28-1.48,.38-2.38,.7-2.33,2.54,.41,13.85,.73,27.7,1.03,41.55,.04,2.05,.13,4.21-.44,6.12-.35,1.14-1.9,2.65-2.96,2.69-1.84,.08-2.48-1.63-2.52-3.47-.34-15.93-.77-31.85-1.05-47.77-.04-1.96-.7-2.91-2.34-3.98-8.26-5.45-17.24-9.95-24.25-17.49-.13,.66-.3,1.32-.37,1.98-.49,5.1-.85,10.21-1.48,15.29-.26,2.05,.14,3.26,2.05,4.32Zm-7.08,120.26c-4.03-7.63-8.15-14.88-11.72-22.39-3.52-7.43-6.49-15.14-9.7-22.72-.34-.02-.69-.03-1.03-.05-.56,2.07-1.52,4.13-1.61,6.22-.98,22.46,2.04,44.06,14.26,63.82l7.4-20.96c.22,.08,.43,.15,.65,.22-.49,1.69-.9,3.4-1.47,5.05-7.28,20.88-12.58,42.33-17.18,63.91-4.59,21.5-8.39,43.17-12.45,64.78-1.48,7.85-3.22,15.79,2.14,23.05,.36,.5,.57,1.12,.88,1.67,.56,.96,1.13,1.91,1.7,2.86,.22-.05,.45-.09,.68-.14,.08-.92,.19-1.84,.24-2.76,.33-6.11,.23-12.27,1.05-18.3,1.37-10.05,3.02-20.07,5.09-29.99,4.86-23.37,10.05-46.66,15.09-69.99,.72-3.34,2.44-5.93,5.3-7.8,9.95-6.47,31.31-20.51,32.51-21.36l-3.81-1.56c1.65-2.07,2.85-4.37,4.71-5.77,5.17-3.88,10.44-7.69,15.99-10.98,12.44-7.38,39.22-22.57,40-23.05-.14-.28-.28-.57-.42-.85-27.62,11.5-54.85,23.96-82.76,34.98,1.38-4.79,3.07-9.13,4.7-13.49,.59-1.58,1.45-3.24,1.43-4.86-.13-8.9-.37-17.81-.85-26.7-.25-4.56-1.16-9.08-1.58-13.64-.09-.98,.47-2.79,1.07-2.95,3.1-.81,6.31-1.68,9.49-1.68,21.94,.01,43.89,.28,65.71-2.78,15.07-2.12,29.67-5.87,43.98-11.17,11.15-4.12,18.46-11.7,23.73-21.84,.22-.4,.27-.89,.4-1.34-1.36,.31-2.24,1.01-3.17,1.65-4.75,3.24-9.33,6.77-14.28,9.65-16.46,9.55-34.66,13.61-53.27,16.04-17.76,2.31-35.65,2.65-53.54,2.66-2.71,0-6.01-.16-8-1.64-4.41-3.29-8.21-7.43-12.16-11.32-.56-.55-.74-1.63-.83-2.49-.37-3.58-.6-7.17-.96-10.74-.23-2.24-.6-4.47-.91-6.7-.39-.08-.79-.17-1.18-.25-1.58,3.53-4,6.92-4.56,10.61-1.48,9.62,3.01,17.01,11.05,22.86-2.89,1.01-5.12,1.67-7.27,2.55-3.3,1.36-3.99,2.66-3.32,6.09,2.54,12.86,3.24,25.85,3.07,38.92-.06,5.24-2.19,9.85-4.29,14.67Zm65.43,41.97c-.55,.01-1.5,.95-1.56,1.54-.4,3.74-.61,7.51-.9,11.55h33.09l2.51-13.16c-11.21,0-22.18-.02-33.14,.07Zm-17.57-62.63c1.34-4.88,1.27-9.24-1.37-13.3-2.53-3.91-6.28-5.27-10.63-3.68-7.26,2.66-11.85,8.11-15.19,14.81-.19,.4-.29,.85-.41,1.28-1.97,7.09,1.46,11.75,8.71,11.38,2.8-.15,5.56-1.22,8.33-1.89,2.6-.63,5.17-1.36,7.78-1.91,3.85-.83,7.75-1.39,11.54-2.4,.85-.23,1.34-1.82,2-2.78-1.02-.5-2-1.35-3.05-1.44-2.47-.21-4.98-.07-7.71-.07Zm-35.28,134.18c3.24-7.56,2.36-13.01-2.97-17.26-2.58-2.07-5.6-3.23-8.72-1.47-6,3.41-10.56,8.28-13.4,14.64-.28,.64-.43,1.37-.48,2.07-.28,4.18,2.74,7.75,8.09,7.83,6.04,.09,12.12-.92,18.14-1.75,1.21-.17,2.23-1.66,3.34-2.55-1.25-.47-3.92-1.48-4-1.51Zm-46.3-95.32c.73-7.78-4.13-14.05-6.14-21.3-1.51,2.88-2.59,5.84-3.64,8.8-.07,.2,.07,.55,.22,.75,2.88,4.08,5.77,8.14,8.66,12.21,.3-.16,.6-.31,.9-.46Zm-65.51-25.58c.96,0,1.49,.05,2,0,10.19-.95,20.44-1.51,30.55-3,7.76-1.13,15.36-3.36,22.98-5.3,1.07-.27,2.2-1.5,2.69-2.57,3.27-7.09,6.27-14.31,9.53-21.4,8.56-18.65,18.29-36.65,30.58-53.16,.31-.42,.75-.94,.72-1.39-.24-4.05-.57-8.1-.88-12.23-.62,.16-.81,.18-.95,.26l-55.89,34.14c-6.97,4.26-13.98,8.46-19.47,14.74-9.16,10.46-14.34,22.91-18.34,35.96-1.39,4.5-2.32,9.14-3.52,13.95Zm-3.54,73.84c-9.72,3.77-17.46,10.2-24.38,17.8-3.98,4.36-4.77,9.21-2.31,14.44,4.74,10.07,9.64,20.07,14.52,30.07,.47,.94,1.16,2.05,2.04,2.45,1.15,.51,2.86,.95,3.85,.46,3.77-1.88,7.38-4.09,10.97-6.31,.69-.43,1.39-1.49,1.39-2.26,0-2.78-.56-5.57-.42-8.34,.13-2.73,.4-5.61,1.4-8.11,1.68-4.23,6.07-5.49,9.89-3.11,2.59,1.62,5.02,3.5,7.38,5.44,1.31,1.08,2.25,1.01,3.51-.01,2.02-1.62,4.16-3.09,6.41-4.75l13.59,22.42c.23-.16,.47-.32,.7-.48-.13-.3-.24-.62-.4-.92-6.52-12.09-12.73-24.36-19.68-36.2-3.98-6.78-8.95-13.03-13.85-19.23-3.79-4.79-8.93-5.56-14.61-3.36Zm-29.6,38.88c3.78,9.63,6.4,19.84,13.22,28.42,.6-2.33-9.57-24.67-13.22-28.42Zm-83.12,59.67c1.47,6.09,4.32,11.74,6.74,17.52,.68-6.81-3.32-12.06-5.46-17.94-.42,.14-.85,.28-1.28,.42Zm12.49,52.29l-4.24-21.9-.86-.09-7.07,21.99h12.17Zm20.55-108.28c-.75,1.73-1.33,2.93-1.78,4.17-5.82,15.78-9.91,32.05-13.54,48.44-2.16,9.75-5.74,19.39-3.79,29.68,1.58,8.28,3.19,16.55,4.88,24.81,.13,.66,.98,1.62,1.55,1.66,2.76,.17,5.53,.07,8.24,.07l4.44-108.83Zm5.49-50.07c-4.36,4.87-5.58,15.62-2.52,21.96l2.52-21.96Zm-.45,75.43h31.29l2.28-33.32,3.33,2.9c.55-1.05,1.32-2.05,1.63-3.17,8.48-31.36,17.63-62.51,28.55-93.12,.92-2.57,1.81-5.16,2.79-7.98-6.71,.37-37.19,2.1-46.06,2.69-.74,.05-1.87,.52-2.1,1.09-3.65,8.96-7.63,17.83-10.59,27.03-1.85,5.74-2.31,11.96-3.07,18.01-1.66,13.1-3.19,26.21-4.62,39.33-.82,7.5-1.43,15.02-1.97,22.55-.58,7.88-.97,15.78-1.46,23.99Zm88.36,44.84c-.05-.23-.05-.5-.17-.69-8.03-12.99-16.05-25.99-24.16-38.93-.45-.72-1.69-1.31-2.58-1.33-7.64-.17-15.29-.14-22.93-.29-1.7-.03-2.24,.63-2.72,2.15-7.02,22.18-12.32,44.77-16.5,67.63-.61,3.29-1.05,6.6-1.61,10.16,1.66,0,32.02,.28,46.13,.56,2.16,.05,2.87-.68,3.39-2.65,3.69-13.95,12.29-45.08,12.92-47.13l7.93,10.7,.3-.18Zm31.58,10.6c3.97,1.1,7.93,2.26,11.93,3.21,1.72,.41,3.54,.4,5.31,.52,1.5,.1,2.16-.54,2.39-2.16,.71-5.06,1.66-10.09,2.51-15.14,.53-3.19-.17-4.31-3.4-5.29-4.36-1.32-8.73-2.58-13.24-3.91,1.12-3.92,2.23-7.6,3.19-11.32,.93-3.59-.87-6.56-4.34-7.45-4.41-1.13-8.83-2.28-13.28-3.44,1.14-5,2.39-9.86,3.28-14.79,.19-1.1-.56-3.18-1.4-3.52-5.64-2.29-11.37-4.41-17.2-6.15-1.3-.39-4.27,.59-4.51,1.48-1.63,5.96-2.83,12.04-3.96,18.11-.5,2.69,.86,4.3,3.63,5.06,4.8,1.31,9.52,2.93,14.39,4.45-1.11,4.14-2.13,7.95-3.16,11.75-.95,3.52-.2,5.02,3.19,6.19,1.02,.34,2.08,.56,3.13,.8,3.71,.84,7.44,1.66,11.28,2.51-.2,.69-.28,1.02-.38,1.35-1.1,3.69-2.3,7.36-3.27,11.09-1.11,4.22-.3,5.49,3.91,6.65Zm40.13,.78c-.58,.28-1.35,.42-1.7,.88-8.79,11.66-20.69,18.89-34.06,24.06-1.71,.66-3.34,1.53-5.01,2.3,.1,.36,.19,.71,.29,1.07,1.45-.24,3.04-.18,4.34-.77,6.35-2.9,12.67-5.88,18.9-9.02,7.37-3.7,12.51-9.82,17.09-16.45,.34-.49,.11-1.37,.15-2.07Zm10.95,20.32c-.35-.27-.71-.53-1.07-.8-3.12,3.36-4.98,7.65-7.56,11.41,3.5-3.08,6.54-6.5,8.63-10.61Zm76.77-62.58c-33.06,2.8-62.56,14.16-90.79,29.33,1.03,4.22,1.87,4.66,5.53,2.82,23.33-11.73,47.72-20.68,72.75-27.99,2.07-.6,4.11-1.27,6.16-1.95,1.91-.63,3.81-1.32,6.35-2.21Zm19.75-25.17l-.35-14.53c-.05-1.65-.23-3.03-2.37-3.48-2.02-.43-3.06,.26-3.62,2.22-.95-.59-1.57-1.28-2.16-1.26-1.19,.03-2.84,.07-3.45,.8-1.05,1.27-.11,2.35,1.29,3.15,.72,.4,1.08,1.45,1.59,2.22,.47,.72,.93,1.44,1.37,2.19,.45,.77,.92,1.55,1.26,2.38,.27,.63,.13,1.68,.55,1.96,1.73,1.14,1.73,2.78,1.67,4.5-.05,1.49,.31,2.84,2.07,2.87,1.96,.02,2.19-1.45,2.15-3.02Zm2.28-45.61l2.92-18.66h-32.94v18.66h30.02Zm106.13,61.01c-34.32-5.13-69.12-6.39-103.74-9.18-2.17,8.54,.5,76.5,3.44,88.94h96.93c.02-26.65-.81-53.17,3.37-79.76Zm121.43,79.11l-16.53-75.22-.61,.03-36.08,75.19h53.22Zm22.73-156.9c11.36-18.05,23.73-35.41,37.66-51.62,1.07-1.25,2.17-2.48,3.5-3.99l-140.93-25.02c-5.75-1.02-33.77,125.84-35.97,136.32-1.04,4.96-1.87,9.97-2.89,15.41,2.69-.15,4.81-.33,6.94-.37,17.08-.38,74.97-1.55,86.84-1.68,1.83-.02,2.85-.55,3.83-2.16,13.6-22.34,27.09-44.75,41.02-66.89Zm19.21,129.82l21.95-48.14-17.21-57.86-23.73,41.59,18.99,64.41Zm73.95,25.79l-9.35-41.1-49.18,41.1h58.53Zm23.71-55.88c-5.97-31.5-13.31-62.64-24.19-92.87-6.79-18.89-15.12-37.07-25.3-54.39-.77-1.32-1.93-2.92-3.23-3.32-3.8-1.16-7.77-1.77-12.01-2.67,.21,1.21,.3,1.99,.48,2.75,5.7,25.28,20.55,90.88,22.34,98.38,.17,.72,.87,1.31,1.33,1.96,.45-.77,.99-1.5,1.31-2.32,.23-.6,.18-1.31,.25-1.97,.25-.05,.49-.09,.73-.14,.24,.4,.64,.78,.68,1.21,.25,2.47,.68,4.96,.56,7.43-.22,4.82,2.81,9.19,1.8,14.09-.06,.29,.32,.64,.39,.98,.3,1.49,.79,2.99,.78,4.49-.02,2.05-.92,4.18-.58,6.12,.97,5.56,2.33,11.06,3.68,16.55,.17,.69,1.18,1.55,1.9,1.66,5.5,.8,11.02,1.47,16.55,2.12,4.15,.5,8.3,.91,12.54,1.37,0-.72,.05-1.08-.01-1.43ZM169.46,346.75c.1-.57-.61-1.28-.94-1.92-.43,.57-1.09,1.09-1.25,1.73-2.02,8.15-.37,15.49,5,21.97,1.03,1.25,2.08,2.47,3.12,3.71,.27-.18,.55-.36,.82-.54-.31-.86-.49-1.8-.97-2.56-4.34-6.85-7.29-14.02-5.78-22.39Zm160.15,30c.57,1.91,1.6,2.89,4.93,3.8,9.69,2.64,19.45,3.14,29.24,.6,1.59-.41,3.07-1.19,4.61-1.8-.09-.21-.17-.41-.25-.62l-38.53-1.98Zm-51.78,94.48c-2,.4-3.95,1.36-5.75,2.39-2.19,1.26-2.18,2.9,.11,4.03,2.07,1.02,4.42,1.5,6.64,2.21,4.44-.09,8.24-1.54,11.52-4.1,1.06-.83,1.35-2.65,2-4.01-1.37-.62-2.75-1.78-4.09-1.75-3.5,.11-7,.54-10.42,1.23Zm-33.75-113.28c-.28-4.65-.77-9.3-1.42-13.92-.39-2.81-.71-5.8-1.91-8.31-2.7-5.66-5.89-11.1-8.96-16.58-.55-.98-1.47-1.76-2.22-2.63-.3,.19-.6,.38-.89,.57,.45,1.08,.74,2.29,1.39,3.23,6.5,9.31,8.69,19.93,9.6,30.96,.19,2.32,.22,4.68,.7,6.94,.22,1.07,1.34,1.94,2.05,2.91,.59-1.06,1.72-2.15,1.66-3.17Zm11.03,106.36c20.45-9.4,41.43-11.72,63.06-4.47,1.84,.61,3.81,1.12,4.57-1.23,.74-2.34-.98-3.44-2.98-4.08-.45-.14-.91-.31-1.38-.36-7-.83-13.99-2.11-21.02-2.37-16.73-.59-32.8,2.67-48.11,9.55-3.21,1.44-4.22,3.13-3.84,6.9,4.25,.45,4.24,.43,7.12-2.15,.78-.69,1.64-1.36,2.57-1.78Zm2.45-38.51c-.45-1.3-.51-3.09-1.4-3.81-4.12-3.3-8.49-6.31-12.78-9.41-.31-.22-.69-.38-1.34-.73-.04,.65-.15,.97-.07,1.23,.25,.76,.58,1.51,.87,2.25,1.98,5.3,6.86,7.45,11.22,10.08,.92,.55,2.33,.28,3.51,.39Zm42.22-99.34l-6.59,2.5c.28-.7,.3-1.05,.46-1.13,5.96-2.92,9.85-8.1,13.69-13.14,6.95-9.12,16.32-11.77,27.26-12.66,17.58-1.42,32.49,4.69,46.82,13.79,3.95,2.5,8.6,3.91,12.93,5.82,.92,.4,1.86,.74,2.79,1.11-.07,.21-.14,.43-.21,.64l-12.77-3.3c5.17,5.88,10.1,11.15,12.44,18.14,.11,.33-.15,.78-.25,1.22l-14.65-15.7c-.26,.17-.52,.35-.78,.52,.28,1.04,.5,2.09,.84,3.11,2.25,6.79,2.8,13.82,1.67,20.78-1.29,7.98-6.3,13.9-12.29,19.08-10.89,9.42-26.11,5.96-33.89,.37-7-5.04-10.62-12.63-12.46-20.84-2.29-10.22-.37-19.85,5.72-28.46,1.66-2.36,3.89-4.33,6-6.63-8.97-.39-16.52,2.48-22.67,8.5-3.82,3.74-7.09,8.04-10.59,12.12-1.52,1.77-2.97,3.59-4.45,5.39-.26-.16-.52-.33-.78-.5l1.76-10.73Zm60.34-9.07c.78,.47,1.56,.94,2.35,1.39,1.62,.93,4.62,.72,3.33,4.09-.1,.25,.34,.84,.67,1.09,2.35,1.79,4.71,3.56,7.13,5.25,.44,.3,1.5,.44,1.67,.21,.35-.47,.37-1.25,.38-1.9,.02-.48-.19-.96-.27-1.3l3.05-.61c-.59-.93-.98-2.21-1.83-2.73-3.65-2.21-7.37-4.35-11.22-6.19-1.41-.67-3.27-.41-4.93-.57-.11,.42-.22,.85-.33,1.27Zm-14.74,22.51c-.05,4.03,3.54,7.71,7.48,7.66,4.04-.05,7.39-3.87,7.36-8.39-.04-4.65-3.52-8.62-7.56-8.61-3.63,.02-7.21,4.61-7.28,9.34Zm-7.18,10.59c-.95-1.72-1.81-3.5-2.68-5.27-1.04-2.11-2.92-1.49-4.48-1.16-.58,.12-1.35,1.47-1.29,2.19,1.1,12.29,12.24,22.16,24.62,22.44,11.4,.26,25.46-11.36,25.02-27.61-2.64,1.3-6.17,1.88-7.11,3.75-1.9,3.8-5.1,6.07-7.85,8.86-.62,.62-2.48,.98-3.03,.53-2.19-1.77-3.29-1-4.68,1.02-1.77,2.56-3.53,2.35-5.17-.28-.51-.82-1.06-1.61-1.77-2.69-2.69,4.26-3.41,4.35-6.54,1.16-1.01-1.04-1.73-2.64-3.68-1.51-.14,.08-1.04-.84-1.36-1.43Zm-159.53,28.29c2.1,4.23,14.68,10.72,20.27,10.66,4.45-.05,8.21-1.94,11.71-4.58-11.36,1.59-21.63-1.75-31.98-6.08Zm50.3-21.11c-.21,.66-.08,1.43-.07,2.14,.12,4.69-.96,9.05-3.58,12.99-1.13,1.69-2.23,3.41-3.45,5.28,.6,.17,.77,.26,.93,.25,.17,0,.36-.09,.49-.2,3.27-2.67,6.59-5.28,7.01-9.93,.32-3.48,.65-6.95,.84-10.44,.03-.51-.65-1.06-1-1.59-.4,.5-.99,.94-1.17,1.5Zm-3.21-22.22l6.58,8.23-.5,.53c-2.09-1.79-4.17-3.59-6.25-5.38l-.54,.3c.51,2.96,1.1,5.9,1.51,8.86,.94,6.84,1.42,13.8-1.76,20.11-1.76,3.49-4.77,6.42-7.53,9.3-.9,.94-2.78,1.16-4.25,1.3-7.43,.75-14.85,.58-21.41-3.48-7.89-4.88-12.27-12.19-12.91-21.49-.26-3.75-.29-7.6,.25-11.3,1-6.86,3.82-13.01,9.14-18.57-7.18,.2-13.21,1.93-18.3,6.17-2.9,2.41-5.48,5.21-8.35,7.67-.73,.63-1.99,.66-3,.96-.07-.97-.37-2-.15-2.91,.51-2.13,1.27-4.2,2.06-6.72l-3.68,.77c-.09-.15-.17-.3-.26-.45,.5-.42,.94-.91,1.48-1.24,3.79-2.25,7.55-4.57,11.42-6.66,11.18-6.07,23.01-7.8,35.04-3.42,5.23,1.9,9.89,5.42,14.66,8.44,3.68,2.34,7.13,5.05,10.94,7.77-1.18,.34-2.51,.73-4.19,1.21Zm-22.59-8.11c.93,.37,2.01,.55,2.76,1.14,1.47,1.17,2.92,2.44,4.09,3.9,1.31,1.63,2.21,3.6,3.53,5.23,.29,.36,1.63-.08,2.47-.24,.76-.15,1.5-.43,2.26-.64,.78-.21,2.11-.24,2.25-.67,.25-.75,.08-2.01-.44-2.58-4.47-4.9-9.97-7.37-16.66-6.83-.08,.23-.17,.46-.26,.69Zm-.51,31.61c.18-.02,.84,0,1.41-.21,2.47-.87,4.54-4.81,4.16-7.83-.61-4.93-2.72-7.96-5.84-8.41-3.73-.54-6.35,1.96-7.07,6.73-.74,4.94,2.62,9.67,7.34,9.72Zm20.16-1.61c.04-.46-.81-1.46-1.08-1.41-1.96,.4-4.43,.02-4.83,3.11-.13,.96-1.08,1.89-1.82,2.67-.69,.71-1.6,1.2-2.42,1.77-1.46,1-2.7,3.84-4.52,2.42-3.3-2.57-6.1,.19-8.45,.84-2.68,.75-3.44,.38-4.46-1.56-.77-1.44-1.35-3.07-3.6-1.9-.3,.15-1.41-.68-1.72-1.28-.9-1.71-1.59-3.53-2.35-5.3-3.86,.83-4.16,1.34-2.4,4.73,1.03,1.98,2.12,3.98,3.48,5.74,6.06,7.84,18.17,8.35,25.23,6.84,.59-.13,1.12-.55,1.63-.91,5.43-3.86,6.84-9.61,7.31-15.76Z"/>
  </g>
</svg>